<?xml version="1.0" encoding="iso-8859-1"?>
<!-- Generator: Adobe Illustrator 21.0.0, SVG Export Plug-In . SVG Version: 6.00 Build 0)  -->
<svg version="1.1" id="Capa_1" xmlns="http://www.w3.org/2000/svg" xmlns:xlink="http://www.w3.org/1999/xlink" x="0px" y="0px"
	 viewBox="0 0 587.697 587.697" style="enable-background:new 0 0 587.697 587.697;" xml:space="preserve">
<g>
	<g>
		<g id="flat_12_">
			<path style="fill:#3269A1;" d="M30.398,445.839V121.592c0-22.383,18.148-40.531,40.531-40.531h445.839
				c22.383,0,40.531,18.148,40.531,40.531v324.246"/>
			<polyline style="fill:#4398D1;" points="70.929,486.37 70.929,121.592 516.768,121.592 516.768,486.37 			"/>
			<polygon style="fill:#3E8CC7;" points="121.592,486.37 516.768,486.37 516.768,121.592 486.37,121.592 			"/>
			<path style="fill:#FDA72F;" d="M180.362,385.043h227.074c5.593,0,10.133-4.539,10.133-10.133c0-1.885-0.527-3.729-1.52-5.33
				L302.562,186.178c-2.949-4.752-9.19-6.221-13.953-3.273c-1.327,0.821-2.452,1.945-3.273,3.273L171.851,369.58
				c-2.949,4.762-1.469,11.004,3.283,13.953C176.704,384.495,178.518,385.022,180.362,385.043z"/>
			<rect x="283.716" y="253.317" style="fill:#3269A1;" width="20.265" height="60.796"/>
			<rect x="283.716" y="334.379" style="fill:#3269A1;" width="20.265" height="20.265"/>
			<path style="fill:#DADDDF;" d="M557.298,506.635h-526.9C13.608,506.635,0,493.027,0,476.237v-30.398h231.856
				c6.941,0,13.294,3.921,16.395,10.133l0,0c3.101,6.211,9.454,10.133,16.395,10.133h58.405c6.941,0,13.294-3.921,16.395-10.133l0,0
				c3.101-6.211,9.454-10.133,16.395-10.133h231.856v30.398C587.697,493.027,574.088,506.635,557.298,506.635z"/>
			<path style="fill:#D0D4D6;" d="M547.166,445.839v30.398c0,16.79-13.608,30.398-30.398,30.398h40.531
				c16.79,0,30.398-13.608,30.398-30.398v-30.398H547.166z"/>
		</g>
	</g>
</g>
<g>
</g>
<g>
</g>
<g>
</g>
<g>
</g>
<g>
</g>
<g>
</g>
<g>
</g>
<g>
</g>
<g>
</g>
<g>
</g>
<g>
</g>
<g>
</g>
<g>
</g>
<g>
</g>
<g>
</g>
</svg>
